<?xml version="1.0" encoding="UTF-8"?>
<svg width="28px" height="28px" viewBox="0 0 28 28" version="1.1" xmlns="http://www.w3.org/2000/svg" xmlns:xlink="http://www.w3.org/1999/xlink">
    <title>Shape</title>
    <g id="Page-1" stroke="none" stroke-width="1" fill="none" fill-rule="evenodd">
        <g id="Desktop-Copy" transform="translate(-17.000000, -12.000000)" fill="#FFFFFF" fill-rule="nonzero">
            <g id="GUPPI" transform="translate(17.000000, 12.000000)">
                <path d="M25.344,10.019 C24.984,9.389 24.534,9.009 24.024,9.009 C22.854,4.393 19.094,0.009 15.784,0.009 C15.184,0.009 14.594,0.149 14.014,0.411 C13.434,0.15 12.844,-2.13370988e-16 12.244,-2.13370988e-16 C8.924,-2.13370988e-16 5.17,4.38 4.004,9 C3.494,9 3.034,9.38 2.684,10 C1.126,10.04 -8.8817842e-16,11.7 -8.8817842e-16,13.99 C-8.8817842e-16,16.3 1.15,17.99 2.75,17.99 C3.06,17.99 3.355,17.9 3.63,17.78 C4.33,19.89 5.63,20.54 6.5,20.73 L6.5,23.97 C6.5,24.24 6.72,24.47 7,24.47 C7.27,24.47 7.5,24.24 7.5,23.97 L7.5,22.81 C8.22,24.1 9.67,25.12 11.5,25.627 L11.5,26.457 C11.5,26.727 11.72,26.957 12,26.957 C12.27,26.957 12.5,26.727 12.5,26.457 L12.5,25.837 C12.82,25.887 13.16,25.917 13.5,25.937 L13.5,27.447 C13.5,27.717 13.72,27.947 14,27.947 C14.27,27.947 14.5,27.717 14.5,27.447 L14.5,25.927 C14.84,25.907 15.17,25.877 15.5,25.827 L15.5,26.437 C15.5,26.707 15.72,26.937 16,26.937 C16.27,26.937 16.5,26.707 16.5,26.437 L16.5,25.597 C18.32,25.097 19.77,24.067 20.5,22.78 L20.5,23.93 C20.5,24.2 20.72,24.43 21,24.43 C21.27,24.43 21.5,24.2 21.5,23.93 L21.5,20.68 C22.36,20.48 23.66,19.83 24.37,17.72 C24.64,17.84 24.93,17.92 25.25,17.92 C26.84,17.92 28,16.23 28,13.92 C28,11.635 26.87,9.97 25.31,9.92 L25.344,10.019 Z M2.774,16.51 C2.084,16.51 1.524,15.39 1.524,14.01 C1.524,13.18 1.724,12.45 2.036,12 C2.756,12.18 3.636,12.86 3.916,14.98 C3.716,15.87 3.276,16.5 2.756,16.5 L2.774,16.51 Z M17.123,11.08 C17.373,10.82 18.213,11.25 18.993,12.03 C19.773,12.81 20.193,13.64 19.943,13.9 C19.683,14.15 18.853,13.72 18.063,12.94 C17.273,12.16 16.853,11.32 17.103,11.06 L17.123,11.08 Z M9.08,12.03 C9.86,11.24 10.69,10.82 10.95,11.07 C11.2,11.32 10.77,12.16 9.99,12.94 C9.2,13.72 8.37,14.15 8.11,13.89 C7.85,13.63 8.28,12.8 9.06,12.01 L9.08,12.03 Z M20.98,18.82 C20.92,18.82 20.86,18.83 20.8,18.83 C19.675,18.83 18.71,17.44 18.6,17.27 C16.77,14.52 14.04,14.49 14.01,14.49 C13.9,14.49 11.24,14.54 9.426,17.26 C9.306,17.43 8.236,18.95 7.046,18.8 C6.376,18.71 5.866,18.15 5.526,17.13 L6.466,16.81 C6.656,17.4 6.916,17.76 7.156,17.79 C7.576,17.85 8.236,17.16 8.566,16.68 C10.686,13.49 13.846,13.45 13.983,13.45 C14.113,13.45 17.273,13.48 19.399,16.67 C19.719,17.15 20.409,17.83 20.809,17.77 C21.049,17.73 21.309,17.37 21.499,16.78 L22.439,17.09 C22.099,18.1 21.589,18.66 20.919,18.75 L20.98,18.82 Z M25.27,16.49 C24.75,16.49 24.31,15.86 24.12,14.96 C24.4,12.835 25.28,12.15 26,11.97 C26.3,12.42 26.51,13.15 26.51,13.97 C26.51,15.35 25.95,16.47 25.26,16.47 L25.27,16.49 Z" id="Shape"></path>
            </g>
        </g>
    </g>
</svg>